<?xml version="1.0" encoding="UTF-8"?>
<svg id="stacked_color" data-name="stacked color" xmlns="http://www.w3.org/2000/svg" viewBox="0 0 500 500">
  <defs>
    <style>
      .cls-1 {
        fill: #fff;
      }
    </style>
  </defs>
  <path class="cls-1" d="M365.96,161.27c29.2,9.1,52.23,29.29,57.82,60.42,5.92,33.02-3.47,68.57-34.35,87.54,10.67,4.74,20.07,9.56,28.42,17.08,25.89,23.32,30.05,61.82,22.91,94.22-5.77,26.2-22.9,47.04-46.91,58.79-15.44,7.62-31.51,10.53-49,12.03l-145.01.12-.09-144.21c-52.5-2.38-98.46-31.65-122.63-77.76-8.99-16.48-14.38-33.92-17.84-52.63-8.41-53.98-1.11-111.57,34.27-154.97C133.13,13.37,195.38-.24,254.69,13.69c46.83,11.67,84.02,45.8,99.7,91.86l-56.67,20.94c-6.18-15.42-14.23-29.11-26.96-39.82-16.7-14.11-37.56-20.49-59.55-20-46.07-.37-79.56,27.85-89.95,72.29-9.36,40.04-5.41,96.08,25.98,126.51,14.38,13.69,32.55,21.87,52.55,23.6l-.02-134.27,121.46.05c15.64,0,30.09,2,44.73,6.43ZM362.73,249.58c.88-15.89-8.37-28.98-22.9-33.82-5.76-2.19-11.62-2.52-17.89-3.4l-59.61.11v77.38s65.76-.22,65.76-.22c21.07-2.21,35.6-18.52,34.64-40.05ZM379.52,376.02c-3.3-13.39-13.33-23.29-26.4-27.39-7.83-2.33-15.59-2.93-23.93-2.97l-66.9.1.05,88.17,69.99-.15c10.08-.58,19.45-1.71,28.4-6.18,19.35-9.31,23.47-32.5,18.77-51.58Z"/>
</svg>