<?xml version="1.0" encoding="UTF-8"?>
<svg id="stacked_color" data-name="stacked color" xmlns="http://www.w3.org/2000/svg" viewBox="0 0 1739.96 454.01">
  <defs>
    <style>
      .cls-1 {
        fill: #a1c7e0;
      }

      .cls-2 {
        fill: #f49a4d;
      }

      .cls-3 {
        fill: #153363;
      }

      .cls-4 {
        fill: #233a67;
      }
    </style>
  </defs>
  <path class="cls-2" d="M285.45,147.78c25.34,7.9,45.33,25.41,50.17,52.43,5.14,28.65-3.01,59.5-29.81,75.97,9.26,4.12,17.41,8.3,24.66,14.83,22.47,20.24,26.08,53.65,19.88,81.76-5.01,22.74-19.87,40.82-40.71,51.02-13.39,6.61-27.35,9.14-42.52,10.44l-125.83.11-.08-125.14c-45.56-2.07-85.44-27.47-106.41-67.48-7.8-14.3-12.48-29.43-15.48-45.67-7.3-46.85-.96-96.82,29.74-134.48C83.4,19.45,137.42,7.63,188.88,19.72c40.64,10.12,72.91,39.74,86.51,79.71l-49.18,18.17c-5.36-13.38-12.35-25.26-23.39-34.55-14.49-12.24-32.6-17.78-51.68-17.36-39.98-.32-69.04,24.16-78.05,62.73-8.12,34.75-4.7,83.37,22.55,109.78,12.48,11.88,28.25,18.98,45.6,20.48l-.02-116.52,105.4.04c13.57,0,26.11,1.74,38.81,5.58ZM282.64,224.42c.76-13.79-7.26-25.15-19.88-29.35-5-1.9-10.08-2.19-15.53-2.95l-51.73.09v67.15s57.07-.19,57.07-.19c18.28-1.92,30.89-16.07,30.06-34.75ZM297.21,334.14c-2.86-11.62-11.57-20.21-22.9-23.77-6.8-2.02-13.52-2.54-20.76-2.58l-58.05.09.05,76.51,60.74-.13c8.75-.5,16.88-1.48,24.65-5.36,16.79-8.08,20.37-28.2,16.29-44.76Z"/>
  <g>
    <g>
      <path class="cls-4" d="M570.51,103.61c0-32.96,23.97-56.77,56.18-56.77,17.08,0,31.76,6.47,41.5,18.45l-12.59,12.46c-7.64-8.67-17.08-12.93-28.02-12.93-21.72,0-37.46,16.09-37.46,38.8s15.73,38.8,37.46,38.8c10.94,0,20.38-4.26,28.02-13.09l12.59,12.62c-9.74,11.99-24.42,18.45-41.65,18.45-32.06,0-56.04-23.81-56.04-56.77Z"/>
      <path class="cls-4" d="M765.58,141.62v17.19h-78.66V48.41h76.56v17.19h-57.08v28.7h50.64v16.87h-50.64v30.44h59.18Z"/>
      <path class="cls-4" d="M880.5,48.41v110.39h-16.03l-57.83-74.75v74.75h-19.33V48.41h16.03l57.83,74.75V48.41h19.33Z"/>
      <path class="cls-4" d="M929.94,65.76h-34.76v-17.35h89v17.35h-34.76v93.05h-19.48v-93.05Z"/>
      <path class="cls-4" d="M1077.51,141.62v17.19h-78.66V48.41h76.56v17.19h-57.08v28.7h50.64v16.87h-50.64v30.44h59.18Z"/>
      <path class="cls-4" d="M1167.85,158.81l-21.42-32.33c-1.35.16-2.7.16-4.05.16h-23.67v32.17h-19.48V48.41h43.15c27.57,0,44.65,14.82,44.65,39.27,0,16.72-8.09,29.02-22.32,34.85l24.12,36.27h-20.98ZM1141.49,65.76h-22.77v44h22.77c17.08,0,25.92-8.2,25.92-22.08s-8.84-21.92-25.92-21.92Z"/>
      <path class="cls-4" d="M1343.29,128.84c0,18.92-14.08,29.96-41.05,29.96h-52.14V48.41h49.14c25.17,0,38.66,11.2,38.66,28.7,0,11.35-5.39,19.71-13.48,24.29,11.24,3.78,18.88,13.09,18.88,27.44ZM1269.58,64.5v30.44h27.57c13.48,0,21.13-5.05,21.13-15.14s-7.64-15.3-21.13-15.3h-27.57ZM1323.67,126.79c0-11.04-7.94-15.93-22.62-15.93h-31.46v31.86h31.46c14.68,0,22.62-4.89,22.62-15.93Z"/>
      <path class="cls-4" d="M1356.62,103.61c0-32.64,23.97-56.77,56.48-56.77s56.48,23.97,56.48,56.77-23.97,56.77-56.48,56.77-56.48-24.13-56.48-56.77ZM1449.97,103.61c0-22.55-15.73-38.8-36.86-38.8s-36.86,16.24-36.86,38.8,15.73,38.8,36.86,38.8,36.86-16.24,36.86-38.8Z"/>
      <path class="cls-4" d="M1482.78,103.61c0-32.64,23.97-56.77,56.48-56.77s56.48,23.97,56.48,56.77-23.97,56.77-56.48,56.77-56.48-24.13-56.48-56.77ZM1576.12,103.61c0-22.55-15.73-38.8-36.86-38.8s-36.86,16.24-36.86,38.8,15.73,38.8,36.86,38.8,36.86-16.24,36.86-38.8Z"/>
      <path class="cls-4" d="M1652.53,112.6l-16.63,17.98v28.23h-19.48V48.41h19.48v56.62l51.84-56.62h21.87l-44.05,49.36,46.75,61.03h-22.77l-37.01-46.21Z"/>
    </g>
    <g>
      <g>
        <path class="cls-4" d="M410.56,168.06c-1.66,0-2.5-1.31-2.5-3.94,0-3.85,2.17-10.59,6.5-20.22,4.33-9.63,10.79-22.23,19.37-37.81-3.33,0-6.46.42-9.39,1.25-2.93.83-4.49,1.86-4.66,3.09-.09.35-.28.68-.59.98s-.77.46-1.38.46c-1.4,0-2.1-.7-2.1-2.1,0-2.28,1.79-4.16,5.38-5.65,3.59-1.49,8.62-2.23,15.1-2.23l9.06-14.97c.61-.96,1.27-2.04,1.97-3.22.7-1.18,1.49-2.47,2.36-3.87.87-1.23,1.88-1.84,3.02-1.84.7,0,1.23.2,1.58.59.35.39.53.81.53,1.25,0,1.31-1.93,4.81-5.78,10.5-4.81,7.09-7.4,10.94-7.75,11.55,1.31,0,3.28.11,5.91.33,2.63.22,5.73.55,9.32.98,1.31.09,1.97.74,1.97,1.97,0,1.4-.79,2.1-2.36,2.1-.61,0-1.84-.11-3.68-.33-1.84-.22-3.81-.41-5.91-.59-2.1-.17-3.9-.22-5.38-.13l-1.97.13c-17.77,31.25-26.61,50.68-26.52,58.29l.13,1.05v.26c0,1.4-.74,2.1-2.23,2.1Z"/>
        <path class="cls-4" d="M410.56,168.61c-1.39,0-3.04-.78-3.04-4.48,0-3.96,2.14-10.65,6.55-20.44,4.25-9.44,10.62-21.9,18.93-37.03-2.92.07-5.71.48-8.31,1.22-3.35.95-4.17,1.96-4.27,2.64-.12.5-.37.92-.74,1.29-.41.41-1.01.62-1.77.62-1.71,0-2.65-.94-2.65-2.65,0-2.51,1.92-4.58,5.72-6.15,3.58-1.48,8.63-2.25,15-2.27l8.9-14.7c.62-.97,1.27-2.04,1.97-3.21.7-1.18,1.49-2.48,2.37-3.88,1-1.4,2.16-2.1,3.48-2.1.86,0,1.53.26,1.98.77.44.5.66,1.04.66,1.61,0,.92-.61,3.04-5.87,10.81-3.79,5.58-6.2,9.17-7.22,10.72,1.25.04,2.89.14,4.97.31,2.63.22,5.77.55,9.34.99,1.57.11,2.45,1,2.45,2.51,0,1.71-1.03,2.65-2.91,2.65-.64,0-1.9-.11-3.74-.33-1.84-.22-3.82-.42-5.89-.59-2.06-.17-3.84-.22-5.3-.13l-1.67.11c-17.54,30.87-26.39,50.3-26.3,57.76l.13,1.32c0,1.71-.99,2.65-2.78,2.65ZM433.92,105.55h.92l-.44.81c-8.52,15.48-15.03,28.19-19.35,37.77-4.28,9.51-6.45,16.24-6.45,19.99,0,3.39,1.42,3.39,1.95,3.39,1.18,0,1.69-.47,1.69-1.56v-.26l-.13-.98c-.09-7.85,8.6-27.01,26.59-58.63l.14-.25,2.26-.15c1.52-.09,3.35-.04,5.46.13,2.08.17,4.07.37,5.93.59,1.8.21,3.01.32,3.61.32,1.6,0,1.82-.79,1.82-1.55,0-.93-.44-1.36-1.46-1.43-3.59-.44-6.72-.77-9.33-.98-2.61-.22-4.58-.33-5.86-.33h-.94l.47-.82c.36-.63,2.9-4.42,7.77-11.59,4.7-6.94,5.68-9.37,5.68-10.2,0-.3-.13-.59-.39-.89-.24-.27-.63-.41-1.17-.41-.96,0-1.8.53-2.58,1.61-.85,1.37-1.64,2.66-2.34,3.83-.71,1.19-1.37,2.27-1.98,3.23l-9.21,15.22h-.31c-6.37,0-11.38.74-14.89,2.19-3.35,1.39-5.05,3.12-5.05,5.14,0,1.1.45,1.56,1.56,1.56.46,0,.79-.1.99-.3.24-.24.38-.48.45-.73.2-1.42,1.85-2.57,5.04-3.48,2.97-.84,6.18-1.27,9.54-1.27Z"/>
      </g>
      <g>
        <path class="cls-4" d="M438.91,161.37c-1.4,0-2.1-.7-2.1-2.1,0-1.84.66-4.75,1.97-8.73,1.31-3.98,3.04-8.58,5.19-13.79,2.14-5.21,4.44-10.57,6.89-16.08,1.4-3.06,2.84-6.06,4.33-8.99,1.49-2.93,2.89-5.49,4.2-7.68,12.95-21.88,21.01-32.82,24.16-32.82,1.22,0,1.84.61,1.84,1.84,0,.79-.59,2.25-1.77,4.4-1.18,2.15-2.71,4.64-4.59,7.48-1.88,2.85-3.9,5.71-6.04,8.6-2.15,2.89-4.16,5.54-6.04,7.94-1.88,2.41-3.39,4.22-4.53,5.45-.96,1.14-2.04,2.8-3.22,4.99-1.18,2.19-2.34,4.44-3.48,6.76-1.14,2.32-2.06,4.35-2.76,6.1l-4.99,12.34c1.31-1.75,3.02-3.72,5.12-5.91,4.99-5.51,10.18-9.69,15.56-12.54,5.38-2.84,9.91-4.27,13.59-4.27,2.01,0,3.63.61,4.86,1.84,1.22,1.23,1.84,2.71,1.84,4.46,0,3.41-2.23,9.15-6.7,17.2-4.46,7.96-6.7,12.87-6.7,14.7,0,.96.53,1.44,1.58,1.44,2.45,0,5.12-.9,8.01-2.69,2.89-1.79,5.86-4.09,8.93-6.89,3.06-2.8,6.04-5.6,8.93-8.4.35-.35.87-.53,1.58-.53,1.31,0,1.97.53,1.97,1.58,0,.96-.61,2.06-1.84,3.28-5.86,5.86-10.9,10.24-15.1,13.13-4.2,2.89-8.62,4.33-13.26,4.33-3.5,0-5.25-1.62-5.25-4.86,0-1.23.22-2.41.66-3.55.44-1.14,1.14-2.67,2.1-4.59l6.04-11.95c1.49-2.97,2.58-5.47,3.28-7.48.7-2.01,1.05-3.55,1.05-4.6,0-1.49-.92-2.23-2.76-2.23-3.24,0-7.02,1.29-11.36,3.87-4.33,2.58-8.95,6.46-13.85,11.62-2.8,2.98-5.32,6.13-7.55,9.45-2.23,3.33-4,6.91-5.32,10.77l-1.58,4.59c-.61,1.66-1.58,2.49-2.89,2.49Z"/>
        <path class="cls-4" d="M438.91,161.91c-1.71,0-2.65-.94-2.65-2.65,0-1.91.65-4.82,2-8.9,1.33-4.02,3.08-8.67,5.2-13.82,2.13-5.19,4.46-10.6,6.9-16.1,1.39-3.03,2.85-6.07,4.34-9.02,1.48-2.92,2.9-5.52,4.22-7.71,17.56-29.66,22.46-33.09,24.62-33.09,1.54,0,2.38.85,2.38,2.38,0,.9-.58,2.38-1.84,4.66-1.18,2.14-2.73,4.67-4.62,7.52-1.87,2.82-3.9,5.72-6.06,8.62-2.14,2.89-4.18,5.56-6.05,7.95-1.88,2.4-3.41,4.25-4.56,5.48-.92,1.08-1.98,2.73-3.14,4.88-1.19,2.2-2.36,4.47-3.47,6.74-1.13,2.29-2.05,4.33-2.74,6.07l-3.63,8.98c.86-.99,1.81-2.03,2.86-3.12,5-5.52,10.28-9.78,15.7-12.64,5.44-2.87,10.1-4.33,13.84-4.33,2.15,0,3.92.67,5.24,2,1.33,1.33,2,2.96,2,4.85,0,3.54-2.21,9.25-6.76,17.46-5.48,9.77-6.63,13.25-6.63,14.44,0,.55.17.9,1.03.9,2.34,0,4.93-.88,7.72-2.61,2.84-1.76,5.82-4.06,8.85-6.83,3.07-2.8,6.07-5.63,8.92-8.39.45-.45,1.11-.68,1.96-.68,2.19,0,2.52,1.33,2.52,2.12,0,1.12-.65,2.32-2,3.67-5.86,5.86-10.96,10.3-15.17,13.19-4.28,2.94-8.84,4.43-13.57,4.43-3.79,0-5.8-1.87-5.8-5.4,0-1.29.23-2.55.69-3.74.44-1.15,1.16-2.72,2.12-4.64l6.04-11.95c1.47-2.94,2.56-5.43,3.25-7.42.68-1.95,1.02-3.44,1.02-4.42,0-.78-.25-1.69-2.21-1.69-3.12,0-6.85,1.28-11.08,3.8-4.27,2.55-8.89,6.42-13.73,11.53-2.76,2.93-5.28,6.09-7.49,9.38-2.19,3.27-3.96,6.85-5.25,10.64l-1.58,4.6c-.7,1.9-1.85,2.86-3.4,2.86ZM483.55,71.72c-2.01,0-7.76,5.65-23.69,32.55-1.31,2.18-2.71,4.75-4.18,7.65-1.49,2.94-2.95,5.96-4.32,8.97-2.44,5.48-4.75,10.89-6.88,16.06-2.11,5.13-3.85,9.76-5.17,13.75-1.29,3.91-1.94,6.79-1.94,8.56,0,1.1.45,1.55,1.56,1.55s1.85-.7,2.38-2.14l1.57-4.58c1.32-3.88,3.13-7.54,5.38-10.89,2.24-3.34,4.8-6.54,7.6-9.52,4.91-5.18,9.61-9.12,13.97-11.71,4.4-2.62,8.32-3.95,11.64-3.95,2.87,0,3.3,1.74,3.3,2.78,0,1.12-.35,2.68-1.08,4.77-.71,2.03-1.82,4.57-3.31,7.55l-6.04,11.95c-.95,1.89-1.65,3.42-2.08,4.54-.41,1.07-.62,2.19-.62,3.35,0,2.94,1.49,4.31,4.71,4.31,4.5,0,8.86-1.43,12.95-4.24,4.16-2.86,9.21-7.25,15.02-13.07,1.11-1.11,1.68-2.09,1.68-2.9,0-.53-.17-1.03-1.42-1.03-.55,0-.95.12-1.19.37-2.87,2.78-5.87,5.61-8.95,8.42-3.08,2.82-6.11,5.15-9.01,6.95-2.96,1.84-5.75,2.77-8.3,2.77-1.35,0-2.12-.73-2.12-1.99,0-1.95,2.21-6.85,6.76-14.97,4.4-7.93,6.63-13.63,6.63-16.93,0-1.61-.55-2.95-1.68-4.08-1.13-1.13-2.59-1.68-4.47-1.68-3.57,0-8.05,1.41-13.33,4.2-5.3,2.8-10.49,6.98-15.41,12.42-2.09,2.17-3.79,4.14-5.09,5.87l-2.51,3.34,6.56-16.21c.7-1.76,1.64-3.82,2.77-6.14,1.12-2.28,2.29-4.56,3.49-6.78,1.2-2.21,2.3-3.92,3.28-5.08,1.14-1.23,2.66-3.05,4.52-5.43,1.86-2.39,3.89-5.05,6.03-7.93,2.14-2.88,4.17-5.77,6.02-8.57,1.87-2.83,3.41-5.33,4.57-7.45,1.41-2.56,1.71-3.66,1.71-4.14,0-.92-.37-1.29-1.29-1.29Z"/>
      </g>
      <g>
        <path class="cls-4" d="M511.78,161.37c-3.68,0-6.56-1.27-8.66-3.81s-3.15-5.64-3.15-9.32c0-6.3,2.1-12.78,6.3-19.43,1.14-1.84,2.45-3.65,3.94-5.45,1.49-1.79,3.11-3.52,4.86-5.19,2.63-2.54,5.38-4.64,8.27-6.3,2.89-1.66,5.69-2.49,8.4-2.49,4.46,0,6.7,2.1,6.7,6.3,0,5.25-3.06,10.02-9.19,14.31-5.69,3.85-11.29,5.78-16.8,5.78-.96,0-1.82-.07-2.56-.2-.74-.13-1.42-.28-2.04-.46-.88,1.66-1.66,3.81-2.36,6.43-.7,2.63-1.05,4.9-1.05,6.83,0,5.78,2.54,8.67,7.61,8.67,4.11,0,8.01-.72,11.68-2.17,3.68-1.44,8.05-4.18,13.13-8.21,3.15-2.45,5.51-4.42,7.09-5.91,1.58-1.49,3.28-3.06,5.12-4.73.53-.35,1-.53,1.44-.53s.87.13,1.31.39c.44.26.66.66.66,1.18,0,.96-.88,2.32-2.63,4.07-1.49,1.4-3.06,2.87-4.73,4.4-1.66,1.53-4.29,3.65-7.88,6.37-3.85,2.98-8.05,5.3-12.6,6.96-4.55,1.66-8.84,2.49-12.87,2.49ZM511.64,131.56c2.8,0,5.47-.44,8.01-1.31,2.54-.87,4.94-2.14,7.22-3.81,5.07-3.76,7.61-7.31,7.61-10.63,0-1.49-.92-2.23-2.76-2.23-3.5,0-7.57,2.15-12.21,6.43-2.28,2.1-4.14,4-5.58,5.71s-2.78,3.57-4,5.58c.53.18,1.09.26,1.71.26Z"/>
        <path class="cls-4" d="M511.78,161.91c-3.83,0-6.89-1.35-9.08-4-2.17-2.63-3.28-5.88-3.28-9.67,0-6.38,2.15-13.01,6.39-19.72,1.14-1.85,2.48-3.7,3.98-5.51,1.5-1.81,3.15-3.57,4.9-5.23,2.64-2.55,5.46-4.7,8.37-6.38,2.96-1.7,5.88-2.57,8.67-2.57,4.74,0,7.24,2.37,7.24,6.85,0,5.42-3.17,10.38-9.42,14.76-5.76,3.9-11.52,5.88-17.12,5.88-.99,0-1.89-.07-2.65-.21-.6-.1-1.15-.22-1.66-.35-.77,1.56-1.49,3.56-2.12,5.93-.68,2.56-1.03,4.81-1.03,6.69,0,5.46,2.31,8.12,7.07,8.12,4.03,0,7.89-.72,11.49-2.13,3.61-1.42,7.98-4.15,12.99-8.12,3.13-2.44,5.51-4.41,7.05-5.88,1.59-1.5,3.32-3.1,5.13-4.74,1.36-.92,2.34-.83,3.4-.19.6.36.92.93.92,1.65,0,1.13-.91,2.58-2.78,4.46-1.5,1.41-3.08,2.88-4.74,4.41-1.67,1.54-4.33,3.69-7.92,6.4-3.88,2.99-8.17,5.36-12.74,7.03-4.59,1.68-8.99,2.53-13.05,2.53ZM531.73,109.92c-2.6,0-5.34.81-8.13,2.42-2.84,1.63-5.58,3.73-8.16,6.22-1.73,1.64-3.35,3.37-4.82,5.14-1.47,1.77-2.78,3.58-3.89,5.39-4.13,6.54-6.22,12.98-6.22,19.14,0,3.53,1.02,6.55,3.03,8.97,2.01,2.43,4.71,3.61,8.24,3.61,3.94,0,8.21-.83,12.68-2.46,4.47-1.63,8.67-3.95,12.46-6.88,3.56-2.69,6.2-4.82,7.84-6.34,1.66-1.53,3.23-2.99,4.72-4.39,2.03-2.03,2.45-3.12,2.45-3.67,0-.34-.12-.55-.39-.71-.7-.42-1.29-.47-2.17.12-1.74,1.58-3.46,3.17-5.05,4.67-1.57,1.49-3.97,3.49-7.13,5.94-5.09,4.04-9.56,6.83-13.26,8.28-3.72,1.46-7.72,2.2-11.88,2.2-5.41,0-8.16-3.1-8.16-9.21,0-1.97.36-4.31,1.07-6.97.71-2.65,1.52-4.86,2.41-6.55l.21-.39.43.12c.58.17,1.24.32,1.98.45.71.13,1.54.19,2.47.19,5.38,0,10.93-1.91,16.5-5.68,5.94-4.15,8.95-8.82,8.95-13.86,0-3.87-2.01-5.76-6.15-5.76ZM511.64,132.11c-.67,0-1.31-.1-1.88-.29l-.65-.22.35-.58c1.23-2.03,2.6-3.93,4.05-5.65,1.46-1.72,3.35-3.66,5.63-5.76,4.72-4.36,8.95-6.58,12.58-6.58,2.87,0,3.3,1.74,3.3,2.78,0,3.49-2.64,7.22-7.83,11.07-2.32,1.69-4.8,3-7.37,3.88-2.58.89-5.34,1.34-8.19,1.34ZM510.8,130.95c.27.04.55.07.85.07,2.73,0,5.36-.43,7.83-1.28,2.47-.85,4.85-2.11,7.08-3.73,4.9-3.64,7.39-7.07,7.39-10.19,0-.78-.25-1.69-2.21-1.69-3.34,0-7.33,2.12-11.84,6.29-2.24,2.07-4.11,3.98-5.53,5.66-1.27,1.5-2.46,3.14-3.56,4.88Z"/>
      </g>
    </g>
  </g>
  <g>
    <g>
      <g>
        <path class="cls-3" d="M414.97,430.73c-5.03,0-7.54-2.97-7.54-8.91,0-5.03,1.07-9.89,3.22-14.59.33-.83.87-1.24,1.61-1.24,1.48,0,2.23.66,2.23,1.98,0,.33-.1.76-.31,1.3-.21.53-.43,1.13-.68,1.79-.58,1.56-1.03,3.22-1.36,4.95-.33,1.73-.49,3.54-.49,5.44,0,2.14.29,3.59.87,4.33.58.74,1.32,1.11,2.23,1.11,2.14,0,4.68-.99,7.61-2.97,2.93-1.98,5.96-5.11,9.09-9.4,2.23-3.05,4.53-6.68,6.93-10.88,2.39-4.2,4.95-9.03,7.67-14.47,3.63-7.17,6.97-14.47,10.02-21.89-2.06,2.64-4.2,5.19-6.43,7.67s-4.62,4.78-7.17,6.93c-6.85,5.85-12.53,8.78-17.07,8.78-5.44,0-8.16-3.13-8.16-9.4,0-2.23.43-4.9,1.3-8.04.87-3.13,2.08-6.72,3.65-10.76.25-.66.37-1.21.37-1.67s.12-.93.37-1.42c1.32-2.88,3.5-6.1,6.55-9.65.66-.74,1.24-1.11,1.73-1.11,1.24,0,1.85.91,1.85,2.72-8,11.79-12,21.77-12,29.93,0,3.46,1.36,5.19,4.08,5.19,3.05,0,7.3-2.1,12.74-6.31,3.88-2.97,7.46-6.33,10.76-10.08,3.3-3.75,6.26-7.65,8.9-11.69,1.81-2.72,3.28-5.13,4.39-7.24,1.11-2.1,1.79-3.52,2.04-4.27.41-1.24.99-1.86,1.73-1.86,1.57,0,2.35.66,2.35,1.98,0,.66-.31,1.84-.93,3.52-.62,1.69-1.38,3.69-2.29,6-1.32,3.38-3.22,7.92-5.69,13.6s-5.56,12.45-9.28,20.28c-4.62,9.73-9.15,17.69-13.6,23.87-3.3,4.7-6.91,8.61-10.82,11.75-3.92,3.13-7.4,4.7-10.45,4.7Z"/>
        <path class="cls-3" d="M414.97,431.41c-3.75,0-8.23-1.66-8.23-9.59,0-5.1,1.1-10.11,3.28-14.88.54-1.35,1.51-1.64,2.23-1.64,1.85,0,2.91.97,2.91,2.66,0,.41-.12.92-.35,1.54-.21.53-.43,1.13-.68,1.79-.56,1.52-1.01,3.15-1.33,4.83-.32,1.68-.48,3.47-.48,5.32,0,2.46.39,3.49.72,3.91.44.57,1,.85,1.69.85,1.99,0,4.42-.96,7.22-2.85,2.85-1.92,5.85-5.03,8.92-9.24,2.2-3.01,4.51-6.65,6.88-10.82,2.38-4.18,4.95-9.04,7.65-14.44,2.88-5.7,5.61-11.53,8.13-17.41-1.12,1.34-2.27,2.66-3.43,3.95-2.23,2.48-4.67,4.83-7.24,6.99-6.93,5.93-12.83,8.94-17.51,8.94-4.04,0-8.85-1.75-8.85-10.08,0-2.28.45-5.04,1.32-8.22.87-3.14,2.1-6.78,3.67-10.83.21-.57.32-1.05.32-1.42,0-.56.15-1.14.44-1.73,1.33-2.91,3.57-6.2,6.65-9.79.81-.91,1.54-1.35,2.25-1.35.95,0,2.54.44,2.54,3.4v.21l-.12.17c-7.88,11.62-11.88,21.56-11.88,29.55,0,4.04,1.94,4.51,3.4,4.51,2.88,0,7.03-2.07,12.32-6.16,3.83-2.93,7.41-6.29,10.66-9.99,3.26-3.71,6.24-7.62,8.85-11.61,1.8-2.7,3.27-5.12,4.36-7.18,1.09-2.07,1.76-3.47,1.99-4.16.51-1.54,1.31-2.32,2.38-2.32,1.93,0,3.03.97,3.03,2.66,0,.75-.32,1.98-.97,3.76-.62,1.69-1.39,3.7-2.29,6.01-1.33,3.39-3.24,7.98-5.7,13.63-2.48,5.71-5.61,12.54-9.29,20.3-4.62,9.73-9.22,17.79-13.67,23.98-3.32,4.72-7,8.72-10.95,11.88-4.02,3.22-7.68,4.85-10.88,4.85ZM412.25,406.68c-.32,0-.69.1-.97.81-2.11,4.62-3.17,9.43-3.17,14.34,0,5.53,2.24,8.22,6.86,8.22,2.88,0,6.25-1.53,10.02-4.55,3.85-3.08,7.44-6.99,10.69-11.61,4.41-6.12,8.96-14.12,13.54-23.77,3.67-7.75,6.79-14.57,9.27-20.26,2.45-5.63,4.36-10.2,5.68-13.58.91-2.3,1.67-4.3,2.28-5.98.73-2,.89-2.89.89-3.29,0-.67-.2-1.3-1.67-1.3-.51,0-.87.76-1.08,1.39-.26.78-.94,2.21-2.08,4.37-1.12,2.11-2.6,4.56-4.43,7.3-2.64,4.04-5.65,8-8.96,11.76-3.31,3.76-6.96,7.19-10.86,10.17-5.61,4.34-9.92,6.45-13.15,6.45-2.17,0-4.76-1.02-4.76-5.88,0-8.22,4.04-18.36,11.99-30.14-.05-1.83-.83-1.83-1.17-1.83-.1,0-.49.06-1.22.88-2.99,3.48-5.16,6.67-6.44,9.48-.21.42-.31.79-.31,1.14,0,.54-.14,1.17-.41,1.91-1.55,4.01-2.77,7.61-3.63,10.7-.85,3.06-1.27,5.7-1.27,7.86,0,5.86,2.45,8.72,7.48,8.72,4.35,0,9.94-2.9,16.62-8.62,2.53-2.12,4.92-4.43,7.11-6.86,2.21-2.45,4.36-5.02,6.4-7.63l3.06-3.92-1.89,4.6c-3.05,7.4-6.42,14.78-10.04,21.94-2.71,5.42-5.29,10.3-7.68,14.5-2.4,4.21-4.74,7.9-6.97,10.95-3.17,4.33-6.28,7.55-9.26,9.56-3.03,2.05-5.72,3.09-7.99,3.09-1.13,0-2.06-.46-2.77-1.38-.68-.87-1.01-2.43-1.01-4.75,0-1.93.17-3.81.51-5.57.33-1.76.8-3.46,1.39-5.05.25-.67.48-1.27.68-1.8.22-.57.26-.89.26-1.05,0-.78-.26-1.3-1.54-1.3Z"/>
      </g>
      <g>
        <path class="cls-3" d="M478.66,389.18c-6.68,0-10.02-3.75-10.02-11.25,0-3.46.82-7.09,2.47-10.88,1.65-3.79,3.83-7.32,6.56-10.57,2.72-3.26,5.75-5.92,9.09-7.98,3.34-2.06,6.74-3.09,10.2-3.09,3.05,0,5.28,1.15,6.68,3.46,1.4,2.31,2.1,4.87,2.1,7.67,0,3.71-.74,7.48-2.23,11.32s-3.51,7.36-6.06,10.57c-2.56,3.22-5.44,5.81-8.66,7.79-3.22,1.98-6.6,2.97-10.14,2.97ZM478.54,385.22c.49,0,.78-.04.87-.12,3.22-.41,6.18-1.57,8.91-3.46,2.72-1.9,5.09-4.27,7.11-7.11,2.02-2.84,3.57-5.91,4.64-9.21,1.07-3.3,1.61-6.55,1.61-9.77,0-1.89-.54-3.38-1.61-4.45-1.07-1.07-2.43-1.61-4.08-1.61-2.39,0-4.93.99-7.61,2.97-2.68,1.98-5.19,4.49-7.54,7.54-2.35,3.05-4.27,6.25-5.75,9.59s-2.23,6.33-2.23,8.97c0,4.45,1.89,6.68,5.69,6.68Z"/>
        <path class="cls-3" d="M478.66,389.86c-7.1,0-10.7-4.02-10.7-11.94,0-3.54.85-7.3,2.53-11.16,1.67-3.83,3.91-7.45,6.66-10.74,2.76-3.3,5.87-6.03,9.25-8.12,3.43-2.12,6.99-3.19,10.56-3.19,3.29,0,5.73,1.27,7.26,3.79,1.46,2.41,2.2,5.11,2.2,8.02,0,3.78-.76,7.67-2.27,11.56-1.5,3.88-3.57,7.49-6.16,10.75-2.6,3.27-5.57,5.94-8.83,7.95-3.31,2.04-6.84,3.07-10.5,3.07ZM496.96,346.08c-3.32,0-6.63,1.01-9.84,2.99-3.26,2.01-6.26,4.65-8.92,7.83-2.67,3.19-4.84,6.7-6.45,10.41-1.6,3.69-2.42,7.26-2.42,10.61,0,7.11,3.05,10.57,9.33,10.57,3.4,0,6.69-.96,9.78-2.87,3.13-1.92,5.98-4.49,8.48-7.63,2.5-3.15,4.51-6.65,5.96-10.4,1.45-3.74,2.18-7.46,2.18-11.07,0-2.66-.67-5.12-2-7.31-1.28-2.11-3.28-3.13-6.1-3.13ZM478.54,385.9c-2.91,0-6.37-1.28-6.37-7.36,0-2.72.77-5.83,2.28-9.24,1.5-3.37,3.46-6.64,5.83-9.72,2.38-3.09,4.96-5.67,7.68-7.68,2.78-2.06,5.48-3.1,8.01-3.1,1.83,0,3.36.61,4.56,1.81,1.2,1.2,1.81,2.86,1.81,4.93,0,3.27-.55,6.63-1.64,9.98-1.09,3.34-2.68,6.51-4.73,9.4-2.06,2.9-4.51,5.35-7.28,7.28-2.76,1.92-5.81,3.12-9.07,3.56-.23.11-.56.15-1.09.15ZM495.97,350.16c-2.23,0-4.66.95-7.2,2.84-2.61,1.93-5.11,4.42-7.41,7.41-2.31,3-4.21,6.17-5.67,9.45-1.44,3.24-2.17,6.16-2.17,8.69,0,4.09,1.59,6,5.01,6,.26,0,.41-.01.48-.02l.07-.07.23-.03c3.09-.4,5.98-1.52,8.6-3.35,2.64-1.84,4.98-4.18,6.95-6.95,1.97-2.78,3.5-5.82,4.54-9.03,1.05-3.22,1.57-6.43,1.57-9.56,0-1.72-.46-3.02-1.41-3.97-.95-.95-2.13-1.41-3.6-1.41ZM479.09,384.5h0Z"/>
      </g>
      <g>
        <path class="cls-3" d="M544.33,394c-4.04,0-6.06-2.93-6.06-8.78,0-3.13.74-6.93,2.23-11.38-9.98,11.63-17.81,17.44-23.5,17.44-4.7,0-7.05-2.84-7.05-8.53,0-2.14.35-4.72,1.05-7.73.7-3.01,1.65-6.12,2.84-9.34,1.19-3.22,2.49-6.22,3.9-9.03,1.4-2.8,2.8-5.07,4.2-6.8.49-.58,1.11-.87,1.85-.87.41,0,.82.15,1.24.43.41.29.62.72.62,1.3,0,.49-.29,1.19-.87,2.1-3.71,6.1-6.35,11.42-7.91,15.95-1.98,5.19-2.97,9.69-2.97,13.48,0,3.55.91,5.32,2.72,5.32,1.15,0,2.68-.58,4.58-1.73,1.89-1.15,3.85-2.58,5.87-4.27,2.02-1.69,3.77-3.28,5.26-4.76,4.12-4.37,7.83-9.03,11.13-13.98,1.48-2.31,2.82-4.55,4.02-6.74,1.19-2.18,2.29-4.47,3.28-6.86.41-.91.76-1.59,1.05-2.04.29-.45.72-.68,1.3-.68,1.73,0,2.6.66,2.6,1.98,0,.83-.29,1.4-.87,1.73-8.41,17.07-12.62,28.82-12.62,35.25,0,1.73.16,2.95.49,3.65.33.7.91,1.05,1.73,1.05,1.15,0,2.95-.74,5.38-2.23,2.43-1.48,5.3-3.75,8.59-6.8l12.99-11.87c.66-.66,1.28-.99,1.85-.99,1.32,0,1.98.62,1.98,1.85,0,1.07-2.6,3.96-7.79,8.66-2.23,2.06-4.2,3.79-5.94,5.19-1.73,1.4-3.34,2.64-4.82,3.71-2.8,1.98-5.28,3.53-7.42,4.64-2.14,1.11-3.79,1.67-4.95,1.67Z"/>
        <path class="cls-3" d="M544.33,394.68c-4.48,0-6.74-3.18-6.74-9.46,0-2.45.45-5.31,1.33-8.54-9.2,10.28-16.38,15.28-21.92,15.28-3.53,0-7.73-1.6-7.73-9.22,0-2.18.36-4.84,1.07-7.89.7-3.01,1.67-6.18,2.87-9.42,1.19-3.22,2.52-6.28,3.92-9.1,1.42-2.84,2.86-5.17,4.28-6.93.64-.75,1.44-1.12,2.39-1.12.55,0,1.1.19,1.63.56.6.42.91,1.06.91,1.86,0,.64-.31,1.42-.97,2.47-3.66,6.02-6.3,11.35-7.85,15.81-1.95,5.11-2.93,9.57-2.93,13.26,0,3.08.69,4.64,2.04,4.64,1.02,0,2.44-.55,4.22-1.63,1.86-1.13,3.81-2.55,5.79-4.21,2-1.67,3.75-3.26,5.21-4.72,4.06-4.31,7.78-8.98,11.04-13.87,1.45-2.26,2.8-4.52,3.99-6.69,1.18-2.16,2.28-4.45,3.25-6.8.44-.97.8-1.66,1.11-2.15.42-.65,1.06-1,1.87-1,2.85,0,3.28,1.67,3.28,2.66,0,1.2-.52,1.85-1.02,2.2-8.27,16.8-12.46,28.5-12.46,34.77,0,2.02.23,2.94.43,3.36.21.46.56.66,1.11.66.7,0,2.14-.37,5.02-2.13,2.39-1.46,5.24-3.72,8.49-6.72l12.99-11.88c.77-.77,1.55-1.17,2.32-1.17,1.69,0,2.66.93,2.66,2.54,0,.94-.95,2.77-8.02,9.16-2.23,2.06-4.23,3.82-5.96,5.22-1.75,1.42-3.38,2.67-4.85,3.73-2.83,1.99-5.35,3.57-7.51,4.69-2.26,1.18-3.98,1.75-5.26,1.75ZM542.25,370.75l-1.1,3.3c-1.45,4.36-2.19,8.12-2.19,11.16,0,5.45,1.76,8.1,5.38,8.1,1.04,0,2.6-.54,4.63-1.59,2.1-1.09,4.57-2.64,7.34-4.59,1.44-1.04,3.06-2.28,4.79-3.68,1.71-1.38,3.69-3.12,5.9-5.16,7.01-6.34,7.57-7.85,7.57-8.16,0-.72-.22-1.17-1.3-1.17-.38,0-.86.27-1.37.79l-13.01,11.89c-3.31,3.06-6.24,5.38-8.7,6.88-2.57,1.57-4.44,2.33-5.74,2.33-1.09,0-1.91-.5-2.35-1.44-.38-.8-.56-2.09-.56-3.94,0-6.6,4.15-18.23,12.69-35.55l.09-.19.18-.1c.23-.13.52-.39.52-1.14,0-.42,0-1.3-1.91-1.3-.34,0-.56.11-.72.36-.27.42-.61,1.08-1.01,1.96-.98,2.37-2.09,4.7-3.3,6.91-1.2,2.2-2.57,4.48-4.04,6.78-3.31,4.96-7.08,9.7-11.21,14.07-1.5,1.5-3.29,3.12-5.31,4.82-2.04,1.7-4.04,3.16-5.96,4.32-5.55,3.38-8.33,2.1-8.33-4.17,0-3.86,1.01-8.48,3.01-13.72,1.57-4.54,4.25-9.95,7.97-16.07.67-1.05.77-1.55.77-1.75,0-.45-.18-.63-.33-.74-.3-.21-.57-.31-.84-.31-.54,0-.97.2-1.34.63-1.35,1.66-2.74,3.91-4.11,6.66-1.39,2.78-2.69,5.79-3.87,8.96-1.18,3.18-2.13,6.3-2.82,9.25-.69,2.95-1.03,5.5-1.03,7.58,0,5.28,2.08,7.85,6.37,7.85,5.45,0,13.18-5.79,22.98-17.2l2.27-2.64Z"/>
      </g>
      <g>
        <path class="cls-3" d="M563.5,392.89c-1.32,0-1.98-.54-1.98-1.61,0-.49.14-.99.43-1.48.29-.49.51-.91.68-1.24l11.26-22.76c4.78-9.73,7.17-15.13,7.17-16.2,0-1.15.58-1.73,1.73-1.73,1.57,0,2.35.79,2.35,2.35,0,.82-.37,2.14-1.11,3.96-.74,1.81-1.69,3.92-2.84,6.31-1.98,4.29-3.63,7.59-4.95,9.89,2.47-2.88,4.99-5.6,7.54-8.16,2.56-2.56,5.15-4.99,7.79-7.3,7.83-6.84,13.85-10.27,18.06-10.27,2.89,0,4.33,1.36,4.33,4.08s-.87,3.96-2.6,3.96c-.83,0-1.44-.7-1.85-2.1-.25-.99-.83-1.48-1.73-1.48-1.4,0-4.12,1.53-8.16,4.58-4.45,3.3-8.93,7.22-13.42,11.75-4.5,4.54-9.26,10.31-14.28,17.31l-6.18,8.66c-.33.41-.64.76-.93,1.05-.29.29-.72.43-1.3.43Z"/>
        <path class="cls-3" d="M563.5,393.57c-2.4,0-2.66-1.6-2.66-2.29,0-.62.18-1.23.53-1.83.28-.48.5-.88.66-1.2l11.25-22.75c6.18-12.57,7.1-15.36,7.1-15.9,0-1.53.88-2.42,2.41-2.42,1.95,0,3.03,1.08,3.03,3.03,0,.92-.38,2.3-1.16,4.22-.75,1.82-1.71,3.96-2.86,6.35-.85,1.83-1.64,3.5-2.37,4.98,1.28-1.39,2.58-2.74,3.87-4.03,2.56-2.56,5.19-5.03,7.83-7.33,8.03-7.02,14.09-10.43,18.51-10.43,3.28,0,5.01,1.65,5.01,4.76,0,3.83-1.78,4.64-3.28,4.64-1.16,0-2.01-.87-2.51-2.59-.22-.88-.65-.99-1.08-.99-.85,0-2.89.77-7.75,4.44-4.41,3.27-8.9,7.2-13.34,11.68-4.45,4.49-9.23,10.28-14.22,17.23l-6.18,8.66c-.37.46-.7.83-1,1.13-.42.42-1.02.63-1.78.63ZM582.79,348.55c-.77,0-1.05.27-1.05,1.05,0,.82-.82,3.44-7.24,16.5l-11.26,22.76c-.17.34-.41.77-.7,1.28-.23.39-.34.76-.34,1.14s0,.93,1.3.93c.39,0,.66-.08.82-.23.27-.27.56-.61.88-.99l6.16-8.63c5.03-7.01,9.86-12.86,14.36-17.4,4.49-4.53,9.03-8.51,13.5-11.82,5.59-4.22,7.57-4.71,8.57-4.71,1.22,0,2.07.71,2.4,2,.21.71.59,1.58,1.19,1.58.52,0,1.91,0,1.91-3.27,0-2.35-1.12-3.4-3.65-3.4-4.02,0-9.94,3.4-17.61,10.1-2.61,2.28-5.22,4.72-7.76,7.27s-5.05,5.26-7.51,8.12l-1.11-.78c1.31-2.3,2.97-5.61,4.92-9.84,1.15-2.37,2.1-4.48,2.83-6.28.88-2.14,1.06-3.19,1.06-3.7,0-1.19-.48-1.67-1.67-1.67Z"/>
      </g>
    </g>
    <g>
      <path class="cls-3" d="M665.73,365.58h8.61v19.34c-5.11,4.09-12.25,6.17-19.19,6.17-15.19,0-26.4-10.47-26.4-24.95s11.2-24.96,26.54-24.96c8.19,0,15.05,2.7,19.67,7.9l-5.74,5.55c-3.85-3.81-8.26-5.55-13.51-5.55-10.43,0-17.78,7-17.78,17.05s7.35,17.05,17.71,17.05c3.5,0,6.93-.69,10.08-2.5v-15.11Z"/>
      <path class="cls-3" d="M707.11,352.96v8.25c-.77-.14-1.4-.21-2.03-.21-6.65,0-10.85,3.88-10.85,11.44v17.95h-8.75v-37.02h8.33v5.41c2.52-3.88,7.07-5.82,13.3-5.82Z"/>
      <path class="cls-3" d="M745.62,368.7v21.7h-8.26v-4.51c-2.1,3.19-6.16,4.99-11.76,4.99-8.54,0-13.93-4.64-13.93-11.09s4.2-11.02,15.54-11.02h9.66v-.55c0-5.06-3.08-8.04-9.31-8.04-4.2,0-8.54,1.39-11.34,3.67l-3.43-6.31c3.99-3.05,9.8-4.58,15.82-4.58,10.78,0,17.01,5.06,17.01,15.74ZM736.86,378.82v-4.3h-9.03c-5.95,0-7.56,2.22-7.56,4.92,0,3.12,2.66,5.13,7.14,5.13s7.98-1.94,9.45-5.75Z"/>
      <path class="cls-3" d="M793.65,369.18v21.21h-8.75v-20.1c0-6.58-3.29-9.77-8.89-9.77-6.23,0-10.43,3.74-10.43,11.16v18.72h-8.75v-37.02h8.33v4.78c2.87-3.4,7.42-5.2,12.88-5.2,8.96,0,15.61,5.06,15.61,16.22Z"/>
      <path class="cls-3" d="M841.75,338.96v51.43h-8.4v-4.78c-2.94,3.53-7.28,5.27-12.39,5.27-10.85,0-18.9-7.49-18.9-18.99s8.05-18.92,18.9-18.92c4.83,0,9.1,1.6,12.04,4.99v-18.99h8.75ZM833.13,371.88c0-7.07-4.83-11.58-11.13-11.58s-11.13,4.51-11.13,11.58,4.83,11.58,11.13,11.58,11.13-4.51,11.13-11.58Z"/>
      <path class="cls-3" d="M905.46,390.39l-10.01-14.21c-.63.07-1.26.07-1.89.07h-11.06v14.14h-9.1v-48.52h20.16c12.88,0,20.87,6.52,20.87,17.26,0,7.35-3.78,12.75-10.43,15.32l11.27,15.94h-9.8ZM893.14,349.49h-10.64v19.34h10.64c7.98,0,12.11-3.61,12.11-9.71s-4.13-9.64-12.11-9.64Z"/>
      <path class="cls-3" d="M954.68,368.7v21.7h-8.26v-4.51c-2.1,3.19-6.16,4.99-11.76,4.99-8.54,0-13.93-4.64-13.93-11.09s4.2-11.02,15.54-11.02h9.66v-.55c0-5.06-3.08-8.04-9.31-8.04-4.2,0-8.54,1.39-11.34,3.67l-3.43-6.31c3.99-3.05,9.8-4.58,15.82-4.58,10.78,0,17.01,5.06,17.01,15.74ZM945.93,378.82v-4.3h-9.03c-5.95,0-7.56,2.22-7.56,4.92,0,3.12,2.66,5.13,7.14,5.13s7.98-1.94,9.45-5.75Z"/>
      <path class="cls-3" d="M1005.58,371.88c0,11.51-8.05,18.99-18.97,18.99-4.76,0-8.96-1.59-11.97-4.99v17.95h-8.75v-50.46h8.33v4.85c2.94-3.54,7.28-5.27,12.39-5.27,10.92,0,18.97,7.49,18.97,18.92ZM996.69,371.88c0-7.07-4.76-11.58-11.06-11.58s-11.13,4.51-11.13,11.58,4.83,11.58,11.13,11.58,11.06-4.51,11.06-11.58Z"/>
      <path class="cls-3" d="M1012.72,342.08c0-2.91,2.38-5.2,5.6-5.2s5.6,2.15,5.6,4.99c0,3.05-2.31,5.41-5.6,5.41s-5.6-2.29-5.6-5.2ZM1013.91,353.38h8.75v37.02h-8.75v-37.02Z"/>
      <path class="cls-3" d="M1070.76,338.96v51.43h-8.4v-4.78c-2.94,3.53-7.28,5.27-12.39,5.27-10.85,0-18.9-7.49-18.9-18.99s8.05-18.92,18.9-18.92c4.83,0,9.1,1.6,12.04,4.99v-18.99h8.75ZM1062.15,371.88c0-7.07-4.83-11.58-11.13-11.58s-11.13,4.51-11.13,11.58,4.83,11.58,11.13,11.58,11.13-4.51,11.13-11.58Z"/>
      <path class="cls-3" d="M1077.97,386.72l3.36-6.59c3.29,2.15,8.33,3.67,13.02,3.67,5.53,0,7.84-1.52,7.84-4.09,0-7.07-23.11-.42-23.11-15.18,0-7,6.37-11.58,16.45-11.58,4.97,0,10.64,1.18,14,3.19l-3.36,6.59c-3.57-2.08-7.14-2.77-10.71-2.77-5.32,0-7.84,1.73-7.84,4.16,0,7.49,23.11.83,23.11,15.32,0,6.93-6.44,11.44-16.94,11.44-6.23,0-12.46-1.8-15.82-4.16Z"/>
      <path class="cls-3" d="M1138.47,341.87h9.1v40.9h25.62v7.63h-34.73v-48.52Z"/>
      <path class="cls-3" d="M1214.22,374.66h-29.34c1.05,5.41,5.6,8.87,12.11,8.87,4.2,0,7.49-1.32,10.15-4.02l4.69,5.34c-3.36,3.95-8.61,6.03-15.05,6.03-12.53,0-20.65-7.97-20.65-18.99s8.19-18.92,19.32-18.92,18.9,7.56,18.9,19.13c0,.69-.07,1.73-.14,2.56ZM1184.82,368.9h21.22c-.7-5.34-4.83-9.01-10.57-9.01s-9.8,3.61-10.64,9.01Z"/>
      <path class="cls-3" d="M1253.01,368.7v21.7h-8.26v-4.51c-2.1,3.19-6.16,4.99-11.76,4.99-8.54,0-13.93-4.64-13.93-11.09s4.2-11.02,15.54-11.02h9.66v-.55c0-5.06-3.08-8.04-9.31-8.04-4.2,0-8.54,1.39-11.34,3.67l-3.43-6.31c3.99-3.05,9.8-4.58,15.82-4.58,10.78,0,17.01,5.06,17.01,15.74ZM1244.26,378.82v-4.3h-9.03c-5.95,0-7.56,2.22-7.56,4.92,0,3.12,2.66,5.13,7.14,5.13s7.98-1.94,9.45-5.75Z"/>
      <path class="cls-3" d="M1285.85,352.96v8.25c-.77-.14-1.4-.21-2.03-.21-6.65,0-10.85,3.88-10.85,11.44v17.95h-8.75v-37.02h8.33v5.41c2.52-3.88,7.07-5.82,13.3-5.82Z"/>
      <path class="cls-3" d="M1330.1,369.18v21.21h-8.75v-20.1c0-6.58-3.29-9.77-8.89-9.77-6.23,0-10.43,3.74-10.43,11.16v18.72h-8.75v-37.02h8.33v4.78c2.87-3.4,7.42-5.2,12.88-5.2,8.96,0,15.61,5.06,15.61,16.22Z"/>
      <path class="cls-3" d="M1340.04,342.08c0-2.91,2.38-5.2,5.6-5.2s5.6,2.15,5.6,4.99c0,3.05-2.31,5.41-5.6,5.41s-5.6-2.29-5.6-5.2ZM1341.23,353.38h8.75v37.02h-8.75v-37.02Z"/>
      <path class="cls-3" d="M1398.29,369.18v21.21h-8.75v-20.1c0-6.58-3.29-9.77-8.89-9.77-6.23,0-10.43,3.74-10.43,11.16v18.72h-8.75v-37.02h8.33v4.78c2.87-3.4,7.42-5.2,12.88-5.2,8.96,0,15.61,5.06,15.61,16.22Z"/>
      <path class="cls-3" d="M1446.88,353.38v31.4c0,13.45-7.07,19.55-20.17,19.55-7,0-13.93-1.8-18.2-5.27l3.92-6.52c3.29,2.7,8.61,4.44,13.79,4.44,8.26,0,11.9-3.74,11.9-11.23v-1.94c-3.08,3.33-7.49,4.92-12.53,4.92-10.71,0-18.9-7.21-18.9-17.95s8.19-17.81,18.9-17.81c5.25,0,9.87,1.66,12.95,5.34v-4.92h8.33ZM1438.27,370.77c0-6.24-4.76-10.47-11.34-10.47s-11.41,4.23-11.41,10.47,4.76,10.61,11.41,10.61,11.34-4.3,11.34-10.61Z"/>
      <path class="cls-3" d="M1475.02,366.13c0-14.49,11.2-24.96,26.26-24.96,7.98,0,14.84,2.84,19.39,8.11l-5.88,5.48c-3.57-3.81-7.98-5.68-13.09-5.68-10.15,0-17.5,7.07-17.5,17.05s7.35,17.05,17.5,17.05c5.11,0,9.52-1.87,13.09-5.75l5.88,5.55c-4.55,5.27-11.41,8.11-19.46,8.11-14.98,0-26.19-10.47-26.19-24.95Z"/>
      <path class="cls-3" d="M1562.19,374.66h-29.34c1.05,5.41,5.6,8.87,12.11,8.87,4.2,0,7.49-1.32,10.15-4.02l4.69,5.34c-3.36,3.95-8.61,6.03-15.05,6.03-12.53,0-20.65-7.97-20.65-18.99s8.19-18.92,19.32-18.92,18.9,7.56,18.9,19.13c0,.69-.07,1.73-.14,2.56ZM1532.79,368.9h21.22c-.7-5.34-4.83-9.01-10.57-9.01s-9.8,3.61-10.64,9.01Z"/>
      <path class="cls-3" d="M1607.56,369.18v21.21h-8.75v-20.1c0-6.58-3.29-9.77-8.89-9.77-6.23,0-10.43,3.74-10.43,11.16v18.72h-8.75v-37.02h8.33v4.78c2.87-3.4,7.42-5.2,12.88-5.2,8.96,0,15.61,5.06,15.61,16.22Z"/>
      <path class="cls-3" d="M1641.17,388.38c-2.1,1.66-5.25,2.5-8.4,2.5-8.19,0-12.88-4.3-12.88-12.48v-17.81h-6.16v-6.93h6.16v-8.46h8.75v8.46h10.01v6.93h-10.01v17.61c0,3.61,1.82,5.55,5.18,5.55,1.82,0,3.57-.49,4.9-1.52l2.45,6.17Z"/>
      <path class="cls-3" d="M1682.13,374.66h-29.34c1.05,5.41,5.6,8.87,12.11,8.87,4.2,0,7.49-1.32,10.15-4.02l4.69,5.34c-3.36,3.95-8.61,6.03-15.05,6.03-12.53,0-20.65-7.97-20.65-18.99s8.19-18.92,19.32-18.92,18.9,7.56,18.9,19.13c0,.69-.07,1.73-.14,2.56ZM1652.72,368.9h21.22c-.7-5.34-4.83-9.01-10.57-9.01s-9.8,3.61-10.64,9.01Z"/>
      <path class="cls-3" d="M1712.31,352.96v8.25c-.77-.14-1.4-.21-2.03-.21-6.65,0-10.85,3.88-10.85,11.44v17.95h-8.75v-37.02h8.33v5.41c2.52-3.88,7.07-5.82,13.3-5.82Z"/>
    </g>
  </g>
  <g>
    <path class="cls-4" d="M425.91,282.09l-8.84,9.56v15h-10.35v-58.67h10.35v30.09l27.55-30.09h11.62l-23.41,26.23,24.84,32.44h-12.1l-19.67-24.56Z"/>
    <path class="cls-4" d="M463.49,281.09v-33.11h10.35v32.69c0,12.07,5.17,17.27,14.17,17.27s14.09-5.2,14.09-17.27v-32.69h10.19v33.11c0,17.1-9.16,26.4-24.36,26.4s-24.44-9.3-24.44-26.4Z"/>
    <path class="cls-4" d="M577.98,306.65l-.08-38.89-18.31,32.19h-4.62l-18.31-31.68v38.39h-9.87v-58.67h8.52l22.13,38.89,21.74-38.89h8.52l.08,58.67h-9.79Z"/>
    <path class="cls-4" d="M598.84,277.31c0-17.35,12.74-30.17,30.02-30.17s30.02,12.74,30.02,30.17-12.74,30.17-30.02,30.17-30.02-12.82-30.02-30.17ZM648.44,277.31c0-11.99-8.36-20.62-19.59-20.62s-19.59,8.63-19.59,20.62,8.36,20.62,19.59,20.62,19.59-8.63,19.59-20.62Z"/>
    <path class="cls-4" d="M719.38,247.98v58.67h-8.52l-30.73-39.73v39.73h-10.27v-58.67h8.52l30.73,39.73v-39.73h10.27Z"/>
    <path class="cls-4" d="M794.38,276.64h9.79v23.38c-5.81,4.94-13.93,7.46-21.82,7.46-17.28,0-30.02-12.66-30.02-30.17s12.74-30.17,30.18-30.17c9.31,0,17.12,3.27,22.37,9.56l-6.53,6.71c-4.38-4.61-9.39-6.71-15.37-6.71-11.86,0-20.22,8.47-20.22,20.62s8.36,20.62,20.14,20.62c3.98,0,7.88-.84,11.46-3.02v-18.27Z"/>
    <path class="cls-4" d="M854.26,306.65l-11.39-17.18c-.72.08-1.43.08-2.15.08h-12.58v17.1h-10.35v-58.67h22.93c14.65,0,23.73,7.88,23.73,20.87,0,8.88-4.3,15.42-11.86,18.52l12.82,19.28h-11.15ZM840.24,257.2h-12.1v23.38h12.1c9.08,0,13.77-4.36,13.77-11.73s-4.7-11.65-13.77-11.65Z"/>
    <path class="cls-4" d="M912.14,293.07h-27.87l-5.49,13.58h-10.67l25.08-58.67h10.19l25.16,58.67h-10.83l-5.57-13.58ZM908.72,284.52l-10.51-25.65-10.43,25.65h20.94Z"/>
    <path class="cls-4" d="M985.15,247.98v58.67h-8.52l-30.73-39.73v39.73h-10.27v-58.67h8.52l30.73,39.73v-39.73h10.27Z"/>
    <path class="cls-4" d="M1000.12,247.98h24.36c18.07,0,30.41,11.73,30.41,29.34s-12.34,29.34-30.41,29.34h-24.36v-58.67ZM1024,297.43c12.42,0,20.46-7.96,20.46-20.12s-8.04-20.12-20.46-20.12h-13.54v40.23h13.54Z"/>
    <path class="cls-4" d="M1124.32,306.65l-11.39-17.18c-.72.08-1.43.08-2.15.08h-12.58v17.1h-10.35v-58.67h22.93c14.65,0,23.73,7.88,23.73,20.87,0,8.88-4.3,15.42-11.86,18.52l12.82,19.28h-11.15ZM1110.31,257.2h-12.1v23.38h12.1c9.08,0,13.77-4.36,13.77-11.73s-4.7-11.65-13.77-11.65Z"/>
    <path class="cls-4" d="M1182.2,293.07h-27.87l-5.49,13.58h-10.67l25.08-58.67h10.19l25.16,58.67h-10.83l-5.57-13.58ZM1178.78,284.52l-10.51-25.65-10.43,25.65h20.94Z"/>
    <path class="cls-4" d="M1252.35,268.85c0,12.91-9.08,20.87-23.73,20.87h-12.58v16.93h-10.35v-58.67h22.93c14.65,0,23.73,7.88,23.73,20.87ZM1241.92,268.85c0-7.38-4.7-11.65-13.77-11.65h-12.1v23.3h12.1c9.08,0,13.77-4.27,13.77-11.65Z"/>
    <path class="cls-4" d="M1262.7,247.98h10.35v58.67h-10.35v-58.67Z"/>
    <path class="cls-4" d="M1288.1,247.98h24.36c18.07,0,30.41,11.73,30.41,29.34s-12.34,29.34-30.41,29.34h-24.36v-58.67ZM1311.98,297.43c12.42,0,20.46-7.96,20.46-20.12s-8.04-20.12-20.46-20.12h-13.54v40.23h13.54Z"/>
    <path class="cls-4" d="M1349.17,300.45l3.58-8.47c4.46,3.77,11.54,6.45,18.39,6.45,8.68,0,12.34-3.27,12.34-7.63,0-12.66-33.12-4.36-33.12-26.15,0-9.47,7.17-17.52,22.45-17.52,6.69,0,13.69,1.84,18.55,5.2l-3.26,8.47c-5.02-3.1-10.51-4.61-15.37-4.61-8.6,0-12.1,3.52-12.1,7.96,0,12.49,33.04,4.36,33.04,25.9,0,9.39-7.25,17.43-22.53,17.43-8.68,0-17.36-2.85-21.97-7.04Z"/>
    <path class="cls-4" d="M1475.44,247.98v58.67h-8.52l-30.73-39.73v39.73h-10.27v-58.67h8.52l30.73,39.73v-39.73h10.27Z"/>
    <path class="cls-4" d="M1486.43,277.31c0-17.35,12.74-30.17,30.02-30.17s30.02,12.74,30.02,30.17-12.74,30.17-30.02,30.17-30.02-12.82-30.02-30.17ZM1536.03,277.31c0-11.99-8.36-20.62-19.59-20.62s-19.59,8.63-19.59,20.62,8.36,20.62,19.59,20.62,19.59-8.63,19.59-20.62Z"/>
    <path class="cls-4" d="M1593.91,306.65l-11.39-17.18c-.72.08-1.43.08-2.15.08h-12.58v17.1h-10.35v-58.67h22.93c14.65,0,23.73,7.88,23.73,20.87,0,8.88-4.3,15.42-11.86,18.52l12.82,19.28h-11.15ZM1579.9,257.2h-12.1v23.38h12.1c9.08,0,13.77-4.36,13.77-11.73s-4.7-11.65-13.77-11.65Z"/>
    <path class="cls-4" d="M1626.16,257.2h-18.47v-9.22h47.29v9.22h-18.47v49.45h-10.35v-49.45Z"/>
    <path class="cls-4" d="M1712.31,247.98v58.67h-10.35v-25.14h-28.82v25.14h-10.35v-58.67h10.35v24.22h28.82v-24.22h10.35Z"/>
  </g>
  <rect class="cls-1" x="405.97" y="202.03" width="1306.34" height="1.35"/>
</svg>